<svg width="35" height="37" viewBox="0 0 35 37" fill="none" xmlns="http://www.w3.org/2000/svg">
<path d="M32.1664 23.1924C31.2578 22.8811 30.3112 22.9794 29.5165 23.3923C28.7218 23.8052 27.7752 23.9035 26.8666 23.5922C26.6386 23.5136 26.4233 23.412 26.2239 23.294C25.5115 22.8877 24.2578 21.2591 25.2076 20.6889L25.7521 20.3612C27.4618 19.3389 27.4618 17.6677 25.7521 16.6453L19.379 12.8376C18.6382 12.333 18.2266 11.3008 18.0335 10.3275C17.986 10.0851 17.9607 9.83929 17.9607 9.60008C17.9607 9.36088 17.9828 9.11839 18.0335 8.87262C18.2266 7.8994 18.7838 7.10313 19.5247 6.59522C20.2655 6.08731 20.8227 5.29103 21.0158 4.31781C21.209 3.34458 21.0032 2.38447 20.5156 1.61769C20.028 0.850904 19.2555 0.274179 18.3152 0.0742916C18.0398 0.0153083 17.7675 -0.00762961 17.4984 0.00220094C17.2293 -0.00762961 16.957 0.0153083 16.6816 0.0742916C15.7413 0.274179 14.972 0.850904 14.4812 1.61769C13.9937 2.38447 13.7879 3.34786 13.981 4.31781C14.1741 5.29103 14.7313 6.08731 15.4722 6.59522C16.213 7.10313 16.7702 7.8994 16.9634 8.87262C17.0109 9.11511 17.0362 9.36088 17.0362 9.60008C17.0362 10.4422 16.3998 11.0583 15.4089 10.4652L14.0158 9.63285C12.3062 8.61048 10.9068 9.44607 10.9068 11.4908V12.0446C10.9068 13.3062 9.23519 13.0473 8.98507 12.8999C8.78562 12.7786 8.59249 12.6377 8.41203 12.4706C7.87698 11.9791 7.52555 11.3532 7.35776 10.688C7.36725 10.57 7.37675 10.4488 7.37675 10.3275C7.37675 8.46957 6.05654 6.93273 4.33424 6.66075C4.29308 6.6542 4.25509 6.64765 4.21393 6.64109C4.15694 6.63454 4.09996 6.63126 4.0398 6.62471C3.97648 6.62143 3.91316 6.61488 3.84984 6.61488C3.82768 6.61488 3.80868 6.61488 3.78969 6.61488C3.75803 6.61488 3.72637 6.61816 3.69471 6.62143C3.65988 6.62143 3.62189 6.62143 3.58706 6.62143C3.56174 6.62143 3.53641 6.62798 3.51108 6.63126C3.4446 6.63781 3.38128 6.64437 3.31479 6.6542C3.2768 6.66075 3.23881 6.66403 3.20081 6.67058C3.109 6.68697 3.01719 6.70663 2.92854 6.72957C2.92854 6.72957 2.92537 6.72957 2.92221 6.72957C1.36137 7.12607 0.199457 8.58426 0.199457 10.3275C0.199457 10.3341 0.199457 10.3407 0.199457 10.3439C0.186793 10.9338 0.319765 11.5105 0.569878 12.025C0.940298 12.7885 1.5735 13.4111 2.39349 13.7486C2.45681 13.7748 2.51696 13.801 2.58028 13.8239C2.59611 13.8305 2.61194 13.8338 2.62777 13.837C2.99186 13.9648 3.38128 14.0402 3.78969 14.0402C4.54319 14.0402 5.24288 13.7977 5.82225 13.3848C6.47445 13.1882 7.18679 13.185 7.88014 13.4242C8.1081 13.5028 8.32338 13.6044 8.52284 13.7224C8.77295 13.8731 10.9068 15.0397 10.9068 18.0085V25.5092C10.9068 27.5539 12.3062 28.3895 14.0158 27.3671L15.4089 26.5348C16.3998 25.945 17.0362 26.5578 17.0362 27.3999C17.0362 27.6391 17.014 27.8816 16.9634 28.1274C16.7702 29.1006 16.213 29.8969 15.4722 30.4048C14.7313 30.9094 14.1741 31.709 13.981 32.6822C13.7879 33.6554 13.9937 34.6155 14.4812 35.3823C14.9688 36.1491 15.7413 36.7258 16.6816 36.9257C16.957 36.9847 17.2293 37.0076 17.4984 36.9978C17.7675 37.0076 18.0398 36.9847 18.3152 36.9257C19.2555 36.7258 20.0249 36.1491 20.5156 35.3823C21.0063 34.6155 21.209 33.6521 21.0158 32.6822C20.8227 31.709 20.2655 30.9127 19.5247 30.4048C18.7838 29.9001 18.2266 29.1006 18.0335 28.1274C17.986 27.8849 17.9607 27.6391 17.9607 27.3999C17.9607 27.1607 17.9828 26.9182 18.0335 26.6725C18.2266 25.6992 18.635 24.6703 19.379 24.1624L20.962 23.2154C21.782 22.7271 22.7001 22.6026 23.6119 22.9172C23.8399 22.9958 25.559 23.992 25.7585 24.1132C25.9579 24.2345 26.1511 24.3754 26.3315 24.5425C27.047 25.2012 27.4396 26.099 27.4903 27.0165C27.5409 27.934 27.9335 28.8319 28.649 29.4905C29.3645 30.1492 30.2732 30.4474 31.1597 30.3917C32.0461 30.3392 32.9136 29.9329 33.55 29.1924C33.7368 28.9761 33.8919 28.7401 34.0185 28.4944C34.161 28.2584 34.2782 27.9996 34.3668 27.7243C34.6676 26.7839 34.5726 25.8041 34.1737 24.9816C33.7748 24.1591 33.0719 23.4939 32.1633 23.1826L32.1664 23.1924ZM31.4098 14.0435C33.3917 14.0435 35 12.3789 35 10.3275C35 8.27624 33.3917 6.6116 31.4098 6.6116C29.4279 6.6116 27.8195 8.27624 27.8195 10.3275C27.8195 12.3789 29.4279 14.0435 31.4098 14.0435ZM3.59023 23.0122C1.60832 23.0122 0 24.6769 0 26.7282C0 28.7795 1.60832 30.4441 3.59023 30.4441C5.57214 30.4441 7.18046 28.7795 7.18046 26.7282C7.18046 24.6769 5.57214 23.0122 3.59023 23.0122Z" fill="url(#paint0_linear_18_1031)"/>
<defs>
<linearGradient id="paint0_linear_18_1031" x1="17.5" y1="0" x2="17.5" y2="37" gradientUnits="userSpaceOnUse">
<stop stop-color="#4500FF"/>
<stop offset="1" stop-color="#9B00FF"/>
</linearGradient>
</defs>
</svg>
