<svg width="16" height="16" viewBox="0 0 16 16" fill="none" xmlns="http://www.w3.org/2000/svg">
<g clip-path="url(#clip0)">
<path d="M11.7333 11.7333H10.6666V10.6667H11.7333V11.7333Z" fill="#666666"/>
<path d="M8.53333 11.7333H9.59999V10.6667H8.53333V11.7333Z" fill="#666666"/>
<path d="M13.8667 11.7333H12.8V10.6667H13.8667V11.7333Z" fill="#666666"/>
<path fill-rule="evenodd" clip-rule="evenodd" d="M3.2 6.4V3.73333C3.2 3.24307 3.29657 2.7576 3.48418 2.30465C3.6718 1.8517 3.9468 1.44014 4.29347 1.09347C4.64014 0.746796 5.0517 0.471801 5.50465 0.284183C5.9576 0.0965655 6.44306 0 6.93333 0C7.4236 0 7.90907 0.0965655 8.36202 0.284183C8.81497 0.471801 9.22653 0.746796 9.5732 1.09347C9.91987 1.44014 10.1949 1.8517 10.3825 2.30465C10.5701 2.7576 10.6667 3.24307 10.6667 3.73333V6.4H12.2667C12.691 6.4 13.098 6.56857 13.398 6.86863C13.6981 7.16869 13.8667 7.57565 13.8667 8V8.58667C14.4695 8.70908 15.0115 9.03612 15.4007 9.5124C15.79 9.98867 16.0027 10.5849 16.0027 11.2C16.0027 11.8151 15.79 12.4113 15.4007 12.8876C15.0115 13.3639 14.4695 13.6909 13.8667 13.8133V14.4C13.8667 14.8243 13.6981 15.2313 13.398 15.5314C13.098 15.8314 12.691 16 12.2667 16H1.6C1.17565 16 0.768687 15.8314 0.468629 15.5314C0.168571 15.2313 0 14.8243 0 14.4L0 8C0 7.57565 0.168571 7.16869 0.468629 6.86863C0.768687 6.56857 1.17565 6.4 1.6 6.4H3.2ZM4.26667 3.73333C4.26667 3.02609 4.54762 2.34781 5.04771 1.84772C5.54781 1.34762 6.22609 1.06667 6.93333 1.06667C7.64058 1.06667 8.31885 1.34762 8.81895 1.84772C9.31905 2.34781 9.6 3.02609 9.6 3.73333V6.4H4.26667V3.73333ZM9.06667 9.6C8.64232 9.6 8.23535 9.76857 7.9353 10.0686C7.63524 10.3687 7.46667 10.7757 7.46667 11.2C7.46667 11.6243 7.63524 12.0313 7.9353 12.3314C8.23535 12.6314 8.64232 12.8 9.06667 12.8H13.3333C13.7577 12.8 14.1646 12.6314 14.4647 12.3314C14.7648 12.0313 14.9333 11.6243 14.9333 11.2C14.9333 10.7757 14.7648 10.3687 14.4647 10.0686C14.1646 9.76857 13.7577 9.6 13.3333 9.6H9.06667Z" fill="#666666"/>
</g>
<defs>
<clipPath id="clip0">
<rect width="16" height="16" fill="white"/>
</clipPath>
</defs>
</svg>
