<svg width="20" height="21" viewBox="0 0 20 21" fill="none" xmlns="http://www.w3.org/2000/svg">
<path d="M8.55295 17.9602C10.4506 17.9598 12.2936 17.2928 13.7884 16.0654L18.4883 21L20 19.4128L15.3002 14.4782C16.4698 12.9085 17.1054 10.9731 17.1059 8.98011C17.1059 4.0287 13.2688 0 8.55295 0C3.83707 0 0 4.0287 0 8.98011C0 13.9315 3.83707 17.9602 8.55295 17.9602ZM8.55295 2.24503C12.0907 2.24503 14.9677 5.26571 14.9677 8.98011C14.9677 12.6945 12.0907 15.7152 8.55295 15.7152C5.01523 15.7152 2.13824 12.6945 2.13824 8.98011C2.13824 5.26571 5.01523 2.24503 8.55295 2.24503Z" fill="black"/>
</svg>
